<?xml version="1.0" encoding="utf-8"?>
<!-- Generator: Adobe Illustrator 23.0.1, SVG Export Plug-In . SVG Version: 6.00 Build 0)  -->
<svg version="1.1" id="Layer_1" xmlns="http://www.w3.org/2000/svg" xmlns:xlink="http://www.w3.org/1999/xlink" x="0px" y="0px"
	 viewBox="0 0 2444 400" style="enable-background:new 0 0 2444 400;" xml:space="preserve">
<style type="text/css">
	.st0{fill:#EA1A15;}
	.st1{fill:#26302B;}
</style>
<title>자산 1</title>
<g>
	<path class="st0" d="M472.45,2.47h-233.7c-17.5,0-31.69,14.19-31.69,31.69v122.79h79.22V81.69h1.98h133.69
		c65.63,0,118.83,53.2,118.83,118.83v0c0,65.63-53.2,118.83-118.83,118.83H286.28V204.48H88.23v-59.42H9.01v198.05h79.22V283.7
		h118.83v83.18c0,17.5,14.19,31.69,31.69,31.69h233.7c72.19,0,130.71-58.52,130.71-130.71V133.18
		C603.17,60.99,544.64,2.47,472.45,2.47z"/>
	<path class="st1" d="M694.27,398.57L694.27,398.57c21.88,0,39.61-17.73,39.61-39.61V42.08c0-21.88-17.73-39.61-39.61-39.61h0
		c-21.88,0-39.61,17.73-39.61,39.61v316.88C654.66,380.84,672.39,398.57,694.27,398.57z"/>
	<path class="st1" d="M1985.57,81.69c21.88,0,39.61-17.73,39.61-39.61v0c0-21.88-17.73-39.61-39.61-39.61h-273.31h0l0,0
		c-21.88,0-39.61,17.73-39.61,39.61v316.88c0,21.88,17.73,39.61,39.61,39.61l0,0h0h273.31c21.88,0,39.61-17.73,39.61-39.61v0
		c0-21.88-17.73-39.61-39.61-39.61h-233.7v-79.22h233.7c21.88,0,39.61-17.73,39.61-39.61v0c0-21.88-17.73-39.61-39.61-39.61h-233.7
		V81.69H1985.57z"/>
	<path class="st1" d="M1137.91,129.22L1137.91,129.22c21.88,0,39.61-17.73,39.61-39.61V42.08c0-21.88-17.73-39.61-39.61-39.61h0
		H908.17C840,4.56,785.37,60.54,785.37,129.22v142.6c0,68.68,54.62,124.59,122.79,126.69v0.07h229.74
		c21.88,0,39.61-17.73,39.61-39.61v0V212.4c0-21.88-17.73-39.61-39.61-39.61h0h-129.72h-0.99c-21.88,0-39.61,17.73-39.61,39.61v0
		c0,21.88,17.73,39.61,39.61,39.61h0.99h90.11v67.34H916.09c-28.44,0-51.49-23.05-51.49-51.49V133.18
		c0-28.44,23.05-51.49,51.49-51.49h182.21v7.92C1098.3,111.49,1116.03,129.22,1137.91,129.22z"/>
	<path class="st1" d="M1581.54,129.22L1581.54,129.22c21.88,0,39.61-17.73,39.61-39.61V42.08c0-21.88-17.73-39.61-39.61-39.61h0
		H1351.8c-68.17,2.09-122.79,58.08-122.79,126.75v142.6c0,68.68,54.62,124.59,122.79,126.69v0.07h229.74
		c21.88,0,39.61-17.73,39.61-39.61v0V212.4c0-21.88-17.73-39.61-39.61-39.61h0h-129.72h-0.99c-21.88,0-39.61,17.73-39.61,39.61v0
		c0,21.88,17.73,39.61,39.61,39.61h0.99h90.11v67.34h-182.21c-28.44,0-51.49-23.05-51.49-51.49V133.18
		c0-28.44,23.05-51.49,51.49-51.49h182.21v7.92C1541.93,111.49,1559.67,129.22,1581.54,129.22z"/>
	<path class="st1" d="M2429.21,109.42c0-59.07-47.88-106.95-106.95-106.95h-209.94c-20.02,1.99-35.65,19.07-35.65,39.61v316.88
		c0,21.88,17.73,39.61,39.61,39.61l0,0c21.88,0,39.61-17.73,39.61-39.61V240.13h154.48c21.88,0,39.61,17.73,39.61,39.61v79.22
		c0,21.88,17.73,39.61,39.61,39.61c21.88,0,39.61-17.73,39.61-39.61V283.7c0-29.73-10.56-56.98-28.14-78.23
		c17.47-19.04,28.14-44.42,28.14-72.29V109.42z M2349.99,133.18c0,15.31-12.41,27.73-27.73,27.73H2155.9V81.69h166.36
		c15.31,0,27.73,12.41,27.73,27.73V133.18z"/>
</g>
</svg>
